<svg width="30" height="30" viewBox="0 0 30 30" fill="none" xmlns="http://www.w3.org/2000/svg">
<path d="M10.6168 22.3324C10.6168 22.572 10.712 22.8018 10.8815 22.9713C11.0509 23.1407 11.2807 23.2359 11.5204 23.2359H25.0736C25.3132 23.2359 25.5431 23.1407 25.7125 22.9713C25.882 22.8018 25.9772 22.572 25.9772 22.3324C25.9772 22.0927 25.882 21.8629 25.7125 21.6934C25.5431 21.524 25.3132 21.4288 25.0736 21.4288H11.5204C11.2807 21.4288 11.0509 21.524 10.8815 21.6934C10.712 21.8629 10.6168 22.0927 10.6168 22.3324ZM25.0736 16.0075H11.5204C11.2807 16.0075 11.0509 15.9123 10.8815 15.7429C10.712 15.5734 10.6168 15.3436 10.6168 15.104C10.6168 14.8643 10.712 14.6345 10.8815 14.4651C11.0509 14.2956 11.2807 14.2004 11.5204 14.2004H25.0736C25.3132 14.2004 25.5431 14.2956 25.7125 14.4651C25.882 14.6345 25.9772 14.8643 25.9772 15.104C25.9772 15.3436 25.882 15.5734 25.7125 15.7429C25.5431 15.9123 25.3132 16.0075 25.0736 16.0075ZM25.0736 8.77912H11.5204C11.2807 8.77912 11.0509 8.68393 10.8815 8.51448C10.712 8.34503 10.6168 8.11521 10.6168 7.87558C10.6168 7.63594 10.712 7.40612 10.8815 7.23667C11.0509 7.06722 11.2807 6.97203 11.5204 6.97203H25.0736C25.3132 6.97203 25.5431 7.06722 25.7125 7.23667C25.882 7.40612 25.9772 7.63594 25.9772 7.87558C25.9772 8.11521 25.882 8.34503 25.7125 8.51448C25.5431 8.68393 25.3132 8.77912 25.0736 8.77912ZM7.00264 23.2359H5.19554C4.9559 23.2359 4.72608 23.1407 4.55664 22.9713C4.38719 22.8018 4.29199 22.572 4.29199 22.3324C4.29199 22.0927 4.38719 21.8629 4.55664 21.6934C4.72608 21.524 4.9559 21.4288 5.19554 21.4288H7.00264C7.24227 21.4288 7.47209 21.524 7.64154 21.6934C7.81099 21.8629 7.90619 22.0927 7.90619 22.3324C7.90619 22.572 7.81099 22.8018 7.64154 22.9713C7.47209 23.1407 7.24227 23.2359 7.00264 23.2359ZM7.00264 16.0075H5.19554C4.9559 16.0075 4.72608 15.9123 4.55664 15.7429C4.38719 15.5734 4.29199 15.3436 4.29199 15.104C4.29199 14.8643 4.38719 14.6345 4.55664 14.4651C4.72608 14.2956 4.9559 14.2004 5.19554 14.2004H7.00264C7.24227 14.2004 7.47209 14.2956 7.64154 14.4651C7.81099 14.6345 7.90619 14.8643 7.90619 15.104C7.90619 15.3436 7.81099 15.5734 7.64154 15.7429C7.47209 15.9123 7.24227 16.0075 7.00264 16.0075ZM7.00264 8.77912H5.19554C4.9559 8.77912 4.72608 8.68393 4.55664 8.51448C4.38719 8.34503 4.29199 8.11521 4.29199 7.87558C4.29199 7.63594 4.38719 7.40612 4.55664 7.23667C4.72608 7.06722 4.9559 6.97203 5.19554 6.97203H7.00264C7.24227 6.97203 7.47209 7.06722 7.64154 7.23667C7.81099 7.40612 7.90619 7.63594 7.90619 7.87558C7.90619 8.11521 7.81099 8.34503 7.64154 8.51448C7.47209 8.68393 7.24227 8.77912 7.00264 8.77912Z" fill="white"/>
</svg>
