<svg width="14" height="12" viewBox="0 0 14 12" fill="none" xmlns="http://www.w3.org/2000/svg">
<path d="M8.2598 2.49769H11.1998V3.5384H8.2598V2.49769ZM8.2598 5.09947H11.1998V6.14018H8.2598V5.09947ZM8.2598 7.70125H11.1998V8.74196H8.2598V7.70125ZM2.7998 2.49769H5.7398V3.5384H2.7998V2.49769ZM2.7998 5.09947H5.7398V6.14018H2.7998V5.09947ZM2.7998 7.70125H5.7398V8.74196H2.7998V7.70125Z" fill="#9A9A9A"/>
<path d="M13 0H1C0.734865 0.000270507 0.480665 0.10801 0.293186 0.299574C0.105707 0.491139 0.000264738 0.750878 0 1.02179V10.2179C0.000264738 10.4888 0.105707 10.7486 0.293186 10.9401C0.480665 11.1317 0.734865 11.2394 1 11.2397H13C13.2651 11.2394 13.5193 11.1317 13.7068 10.9401C13.8943 10.7486 13.9997 10.4888 14 10.2179V1.02179C13.9997 0.750878 13.8943 0.491139 13.7068 0.299574C13.5193 0.10801 13.2651 0.000270507 13 0ZM1 1.02179H6.5V10.2179H1V1.02179ZM7.5 10.2179V1.02179H13V10.2179H7.5Z" fill="#9A9A9A"/>
</svg>
