<svg width="22" height="27" viewBox="0 0 22 27" fill="none" xmlns="http://www.w3.org/2000/svg">
<path d="M9.00442 1.90325C9.17896 1.41319 9.47836 0.993516 9.86424 0.698008C10.2501 0.402501 10.7049 0.244629 11.1703 0.244629C11.6356 0.244629 12.0904 0.402501 12.4763 0.698008C12.8622 0.993516 13.1616 1.41319 13.3361 1.90325C15.0636 2.44293 16.5874 3.61187 17.6734 5.23055C18.7594 6.84923 19.3476 8.82813 19.3477 10.8633V17.0964L21.4879 20.7431C21.6052 20.9429 21.6727 21.1752 21.6829 21.4152C21.6932 21.6551 21.6459 21.8938 21.5461 22.1056C21.4463 22.3174 21.2978 22.4945 21.1164 22.618C20.9349 22.7414 20.7274 22.8066 20.5159 22.8066H15.2181C15.0774 23.9121 14.5908 24.9231 13.8474 25.6543C13.104 26.3855 12.1536 26.788 11.1703 26.788C10.1869 26.788 9.23649 26.3855 8.49309 25.6543C7.74969 24.9231 7.26309 23.9121 7.12244 22.8066H1.82463C1.61313 22.8066 1.4056 22.7414 1.22416 22.618C1.04273 22.4945 0.894196 22.3174 0.79442 22.1056C0.694644 21.8938 0.647365 21.6551 0.657626 21.4152C0.667887 21.1752 0.735304 20.9429 0.852683 20.7431L2.99283 17.0964V10.8633C2.99283 6.585 5.53952 2.9808 9.00442 1.90325ZM9.51843 22.8066C9.63908 23.1949 9.8628 23.5312 10.1587 23.7691C10.4547 24.007 10.8083 24.1347 11.1709 24.1347C11.5334 24.1347 11.887 24.007 12.183 23.7691C12.4789 23.5312 12.7026 23.1949 12.8233 22.8066H9.51726H9.51843ZM11.1703 4.2282C9.62113 4.2282 8.13545 4.92726 7.04004 6.17159C5.94464 7.41592 5.32924 9.10359 5.32924 10.8633V17.4985C5.3293 17.7606 5.261 18.0169 5.13299 18.235L4.008 20.1525H18.3314L17.2064 18.235C17.0788 18.0167 17.0109 17.7605 17.0113 17.4985V10.8633C17.0113 9.10359 16.3959 7.41592 15.3005 6.17159C14.2051 4.92726 12.7194 4.2282 11.1703 4.2282Z" fill="white"/>
</svg>
