<svg width="14" height="14" viewBox="0 0 14 14" fill="none" xmlns="http://www.w3.org/2000/svg">
<path fill-rule="evenodd" clip-rule="evenodd" d="M0 7C0 3.13409 3.13409 0 7 0C10.8659 0 14 3.13409 14 7C14 10.8659 10.8659 14 7 14C3.13409 14 0 10.8659 0 7ZM7 12.7273C6.24788 12.7273 5.50313 12.5791 4.80827 12.2913C4.1134 12.0035 3.48203 11.5816 2.95021 11.0498C2.41838 10.518 1.99651 9.8866 1.70869 9.19173C1.42087 8.49687 1.27273 7.75212 1.27273 7C1.27273 6.24788 1.42087 5.50313 1.70869 4.80827C1.99651 4.1134 2.41838 3.48203 2.95021 2.95021C3.48203 2.41838 4.1134 1.99651 4.80827 1.70869C5.50313 1.42087 6.24788 1.27273 7 1.27273C8.51897 1.27273 9.97572 1.87613 11.0498 2.95021C12.1239 4.02428 12.7273 5.48103 12.7273 7C12.7273 8.51897 12.1239 9.97572 11.0498 11.0498C9.97572 12.1239 8.51897 12.7273 7 12.7273Z" fill="#9A9A9A"/>
<path d="M3 6L6.73333 9L11 6" stroke="#9A9A9A"/>
</svg>
